<svg width="19" height="18" viewBox="0 0 19 18" fill="none" xmlns="http://www.w3.org/2000/svg">
<path d="M4.25295 2.3527C4.92028 2.08576 6.12148 2.21923 6.52188 3.02003C6.78882 3.68736 7.05575 4.62163 7.05575 4.48816C7.05575 3.9543 7.05575 2.88656 7.18922 2.3527C7.32268 1.9523 7.58961 1.5519 8.12348 1.41843C8.52388 1.28497 8.92428 1.28497 9.32468 1.28497C9.72508 1.41843 10.1255 1.68537 10.3924 1.9523C10.9263 2.7531 10.9263 4.48816 10.9263 4.3547C11.0597 3.9543 11.0597 2.7531 11.3267 2.21923C11.4601 1.9523 11.994 1.68536 12.2609 1.5519C12.6613 1.41843 13.1952 1.41843 13.5956 1.5519C13.8625 1.5519 14.3964 1.9523 14.5299 2.21923C14.7968 2.61963 14.9303 3.9543 15.0637 4.48816C15.0637 4.62163 15.1972 3.9543 15.4641 3.5539C15.998 2.7531 17.8665 2.48616 18 4.3547C18 5.28896 18 5.1555 18 5.82283C18 6.49016 18 6.89056 18 7.42443C18 7.95829 17.8665 9.15949 17.7331 9.69336C17.5996 10.0938 17.1992 11.028 16.7988 11.5619C16.7988 11.5619 15.3307 13.1635 15.1972 13.9643C15.0637 14.7651 15.0637 14.7651 15.0637 15.299C15.0637 15.8328 15.1972 16.5002 15.1972 16.5002C15.1972 16.5002 14.1295 16.6336 13.5956 16.5002C13.0617 16.3667 12.3944 15.4324 12.2609 15.032C11.994 14.6316 11.5936 14.6316 11.3267 15.032C11.0597 15.5659 10.3924 16.5002 9.99201 16.5002C9.05775 16.6336 7.18922 16.5002 5.85455 16.5002C5.85455 16.5002 6.12148 15.1655 5.58762 14.6316C5.18722 14.2312 4.51988 13.5639 4.11948 13.1635L3.05175 11.9623C2.65135 11.4284 1.71709 10.7611 1.45015 9.29296C1.18322 8.09176 1.18322 7.42443 1.45015 6.89056C1.71709 6.35669 2.38442 6.08976 2.65135 6.08976C2.91829 6.08976 3.58562 6.08976 3.85255 6.22323C4.11949 6.35669 4.25295 6.49016 4.51988 6.75709C4.78682 7.15749 4.92028 7.42443 4.78682 6.89056C4.65335 6.49016 4.38642 6.08976 4.25295 5.55589C4.11949 5.02203 3.71908 4.3547 3.71908 3.5539C3.05175 3.5539 3.18522 2.7531 4.25295 2.3527Z" fill="white"/>
<path d="M4.25295 2.3527C4.92028 2.08576 6.12148 2.21923 6.52188 3.02003C6.78882 3.68736 7.05575 4.62163 7.05575 4.48816C7.05575 3.9543 7.05575 2.88656 7.18922 2.3527C7.32268 1.9523 7.58962 1.5519 8.12348 1.41843C8.52388 1.28497 8.92428 1.28497 9.32468 1.28497C9.72508 1.41843 10.1255 1.68537 10.3924 1.9523C10.9263 2.7531 10.9263 4.48816 10.9263 4.3547C11.0597 3.9543 11.0597 2.7531 11.3267 2.21923C11.4601 1.9523 11.994 1.68536 12.2609 1.5519C12.6613 1.41843 13.1952 1.41843 13.5956 1.5519C13.8625 1.5519 14.3964 1.9523 14.5299 2.21923C14.7968 2.61963 14.9303 3.9543 15.0637 4.48816C15.0637 4.62163 15.1972 3.9543 15.4641 3.5539C15.998 2.7531 17.8665 2.48616 18 4.3547C18 5.28896 18 5.1555 18 5.82283C18 6.49016 18 6.89056 18 7.42443C18 7.95829 17.8665 9.15949 17.7331 9.69336C17.5996 10.0938 17.1992 11.028 16.7988 11.5619C16.7988 11.5619 15.3307 13.1635 15.1972 13.9643C15.0637 14.7651 15.0637 14.7651 15.0637 15.299C15.0637 15.8328 15.1972 16.5002 15.1972 16.5002C15.1972 16.5002 14.1295 16.6336 13.5956 16.5002C13.0617 16.3667 12.3944 15.4324 12.2609 15.032C11.994 14.6316 11.5936 14.6316 11.3267 15.032C11.0597 15.5659 10.3924 16.5002 9.99201 16.5002C9.05775 16.6336 7.18922 16.5002 5.85455 16.5002C5.85455 16.5002 6.12148 15.1655 5.58762 14.6316C5.18722 14.2312 4.51988 13.5639 4.11948 13.1635L3.05175 11.9623C2.65135 11.4284 1.71709 10.7611 1.45015 9.29296C1.18322 8.09176 1.18322 7.42443 1.45015 6.89056C1.71709 6.35669 2.38442 6.08976 2.65135 6.08976C2.91829 6.08976 3.58562 6.08976 3.85255 6.22323C4.11949 6.35669 4.25295 6.49016 4.51988 6.75709C4.78682 7.15749 4.92028 7.42443 4.78682 6.89056C4.65335 6.49016 4.38642 6.08976 4.25295 5.55589C4.11949 5.02203 3.71908 4.3547 3.71908 3.5539C3.05175 3.5539 3.18522 2.7531 4.25295 2.3527Z" stroke="black" stroke-width="1.001" stroke-linejoin="round"/>
<path d="M13.5956 12.6296V8.09176" stroke="black" stroke-width="1.001" stroke-linecap="round"/>
<path d="M10.9263 12.6296L10.7928 8.09176" stroke="black" stroke-width="1.001" stroke-linecap="round"/>
<path d="M8.2569 8.09176V12.6296" stroke="black" stroke-width="1.001" stroke-linecap="round"/>
</svg>
