<svg width="16" height="16" viewBox="0 0 16 16" fill="none" xmlns="http://www.w3.org/2000/svg">
<circle cx="8" cy="8" r="7" stroke="#2E2E2E" stroke-width="2"/>
<path d="M7.2719 8.46784C7.2719 8.65497 7.31868 8.8421 7.40056 9.02924H8.73389C8.72219 8.93567 8.7105 8.8538 8.7105 8.78363C8.7105 8.46784 8.88593 8.31579 9.52921 7.75439C10.2193 7.1579 10.5 6.70175 10.5 6.04678C10.5 4.83041 9.49412 4 8.19588 4C7.07307 4 6.21927 4.60819 5.89178 5.77778L7.17833 6.33918C7.40056 5.74269 7.72804 5.45029 8.14909 5.45029C8.57015 5.45029 8.88593 5.74269 8.88593 6.16374C8.88593 6.52632 8.72219 6.71345 8.19588 7.1462C7.57599 7.64912 7.2719 8.03509 7.2719 8.46784ZM7.01459 10.9123C7.01459 11.5322 7.49412 12 8.11401 12C8.73389 12 9.20172 11.5322 9.20172 10.9123C9.20172 10.3041 8.73389 9.82456 8.11401 9.82456C7.49412 9.82456 7.01459 10.3041 7.01459 10.9123Z" fill="#2E2E2E"/>
</svg>
