<svg width="30" height="30" viewBox="0 0 30 30" fill="none" xmlns="http://www.w3.org/2000/svg">
<rect y="-1.90735e-06" width="30" height="30" rx="8" fill="#18AA00"/>
<path fill-rule="evenodd" clip-rule="evenodd" d="M18.3123 12.2372C18.6895 12.6058 18.6895 13.2127 18.3123 13.5814C17.9471 13.9383 17.3637 13.9383 16.9985 13.5814L15.9508 12.5574L15.9508 20.0492C15.9508 20.5743 15.5251 21 15 21C14.4749 21 14.0492 20.5743 14.0492 20.0492L14.0492 12.5574L13.0015 13.5814C12.6363 13.9383 12.0529 13.9383 11.6877 13.5814C11.3105 13.2127 11.3105 12.6058 11.6877 12.2372L14.301 9.6831C14.6896 9.30332 15.3104 9.30332 15.699 9.6831L18.3123 12.2372Z" fill="#FBFBFB"/>
</svg>
