<svg width="16" height="16" viewBox="0 0 16 16" fill="none" xmlns="http://www.w3.org/2000/svg">
<path fill-rule="evenodd" clip-rule="evenodd" d="M1 3C1 2.44772 1.48215 2 2.07692 2H13.9231C14.5178 2 15 2.44772 15 3C15 3.55228 14.5178 4 13.9231 4H2.07692C1.48215 4 1 3.55228 1 3Z" fill="#2E2E2E"/>
<path fill-rule="evenodd" clip-rule="evenodd" d="M1 8C1 7.44772 1.48215 7 2.07692 7H13.9231C14.5178 7 15 7.44772 15 8C15 8.55228 14.5178 9 13.9231 9H2.07692C1.48215 9 1 8.55228 1 8Z" fill="#2E2E2E"/>
<path fill-rule="evenodd" clip-rule="evenodd" d="M5 10C4.44772 10 4 9.51785 4 8.92308L4 7.07692C4 6.48215 4.44772 6 5 6C5.55228 6 6 6.48215 6 7.07692L6 8.92308C6 9.51784 5.55228 10 5 10Z" fill="#2E2E2E"/>
<path fill-rule="evenodd" clip-rule="evenodd" d="M11 15C10.4477 15 10 14.5178 10 13.9231L10 12.0769C10 11.4822 10.4477 11 11 11C11.5523 11 12 11.4822 12 12.0769L12 13.9231C12 14.5178 11.5523 15 11 15Z" fill="#2E2E2E"/>
<path fill-rule="evenodd" clip-rule="evenodd" d="M9 5C8.44772 5 8 4.51785 8 3.92308L8 2.07692C8 1.48215 8.44772 0.999999 9 0.999999C9.55228 0.999999 10 1.48215 10 2.07692L10 3.92308C10 4.51784 9.55228 5 9 5Z" fill="#2E2E2E"/>
<path fill-rule="evenodd" clip-rule="evenodd" d="M1 13C1 12.4477 1.48215 12 2.07692 12H13.9231C14.5178 12 15 12.4477 15 13C15 13.5523 14.5178 14 13.9231 14H2.07692C1.48215 14 1 13.5523 1 13Z" fill="#2E2E2E"/>
</svg>
