<svg width="16" height="16" viewBox="0 0 16 16" fill="none" xmlns="http://www.w3.org/2000/svg">
<path fill-rule="evenodd" clip-rule="evenodd" d="M1 3C1 2.44772 1.48215 2 2.07692 2H13.9231C14.5178 2 15 2.44772 15 3C15 3.55228 14.5178 4 13.9231 4H2.07692C1.48215 4 1 3.55228 1 3ZM1 8C1 7.44772 1.48215 7 2.07692 7H13.9231C14.5178 7 15 7.44772 15 8C15 8.55228 14.5178 9 13.9231 9H2.07692C1.48215 9 1 8.55228 1 8ZM2.07692 12C1.48215 12 1 12.4477 1 13C1 13.5523 1.48215 14 2.07692 14H13.9231C14.5178 14 15 13.5523 15 13C15 12.4477 14.5178 12 13.9231 12H2.07692Z" fill="#2E2E2E"/>
</svg>
