<svg width="16" height="16" viewBox="0 0 16 16" fill="none" xmlns="http://www.w3.org/2000/svg">
<g id="copy-icon">
<path id="Rectangle (Stroke)" d="M3 3L3 11H5.5H8V13H5.5H3C1.89543 13 1 12.1046 1 11V3C1 1.89543 1.89543 1 3 1H5.5H8C9.10457 1 10 1.89543 10 3H8H5.5H3Z" fill="currentColor"/>
<path id="Rectangle (Stroke)_2" fill-rule="evenodd" clip-rule="evenodd" d="M13 5H8L8 13H13V5ZM8 3C6.89543 3 6 3.89543 6 5V13C6 14.1046 6.89543 15 8 15H13C14.1046 15 15 14.1046 15 13V5C15 3.89543 14.1046 3 13 3H8Z" fill="currentColor"/>
</g>
</svg>
