<svg width="72" height="72" viewBox="0 0 72 72" fill="none" xmlns="http://www.w3.org/2000/svg">
<circle cx="36" cy="36" r="35.5" fill="white" stroke="#EAEAEA"/>
<g opacity="0.2">
<path d="M30.5 26.1C30.5 25.8083 30.6159 25.5285 30.8222 25.3222C31.0285 25.1159 31.3083 25 31.6 25H40.4C40.6917 25 40.9715 25.1159 41.1778 25.3222C41.3841 25.5285 41.5 25.8083 41.5 26.1C41.5 26.3917 41.3841 26.6715 41.1778 26.8778C40.9715 27.0841 40.6917 27.2 40.4 27.2H31.6C31.3083 27.2 31.0285 27.0841 30.8222 26.8778C30.6159 26.6715 30.5 26.3917 30.5 26.1ZM47 30.5C47 30.7917 46.8841 31.0715 46.6778 31.2778C46.4715 31.4841 46.1917 31.6 45.9 31.6H43.7V42.6C43.7 43.767 43.2364 44.8861 42.4113 45.7113C41.5861 46.5364 40.467 47 39.3 47H32.7C31.533 47 30.4139 46.5364 29.5887 45.7113C28.7636 44.8861 28.3 43.767 28.3 42.6V31.6H26.1C25.8083 31.6 25.5285 31.4841 25.3222 31.2778C25.1159 31.0715 25 30.7917 25 30.5C25 30.2083 25.1159 29.9285 25.3222 29.7222C25.5285 29.5159 25.8083 29.4 26.1 29.4H45.9C46.1917 29.4 46.4715 29.5159 46.6778 29.7222C46.8841 29.9285 47 30.2083 47 30.5ZM41.5 31.6H30.5V42.6C30.5 43.1835 30.7318 43.7431 31.1444 44.1556C31.5569 44.5682 32.1165 44.8 32.7 44.8H39.3C39.8835 44.8 40.4431 44.5682 40.8556 44.1556C41.2682 43.7431 41.5 43.1835 41.5 42.6V31.6ZM33.8 42.6C34.0917 42.6 34.3715 42.4841 34.5778 42.2778C34.7841 42.0715 34.9 41.7917 34.9 41.5V34.9C34.9 34.6083 34.7841 34.3285 34.5778 34.1222C34.3715 33.9159 34.0917 33.8 33.8 33.8C33.5083 33.8 33.2285 33.9159 33.0222 34.1222C32.8159 34.3285 32.7 34.6083 32.7 34.9V41.5C32.7 41.7917 32.8159 42.0715 33.0222 42.2778C33.2285 42.4841 33.5083 42.6 33.8 42.6ZM38.2 42.6C38.4917 42.6 38.7715 42.4841 38.9778 42.2778C39.1841 42.0715 39.3 41.7917 39.3 41.5V34.9C39.3 34.6083 39.1841 34.3285 38.9778 34.1222C38.7715 33.9159 38.4917 33.8 38.2 33.8C37.9083 33.8 37.6285 33.9159 37.4222 34.1222C37.2159 34.3285 37.1 34.6083 37.1 34.9V41.5C37.1 41.7917 37.2159 42.0715 37.4222 42.2778C37.6285 42.4841 37.9083 42.6 38.2 42.6Z" fill="#2E2E2E"/>
</g>
</svg>
