<svg width="16" height="16" viewBox="0 0 16 16" fill="none" xmlns="http://www.w3.org/2000/svg">
<path fill-rule="evenodd" clip-rule="evenodd" d="M2 2.00251C1.44113 2.03914 1 2.47173 1 3C1 3.52827 1.44113 3.96086 2 3.99749C1.97459 3.99915 1.94894 4 1.92308 4H2.07692C2.05106 4 2.02541 3.99915 2 3.99749C2.55887 3.96086 3 3.52827 3 3C3 2.47173 2.55887 2.03914 2 2.00251ZM2 2.00251C2.02541 2.00085 2.05106 2 2.07692 2H1.92308C1.94894 2 1.97459 2.00085 2 2.00251ZM6.07692 2C5.48215 2 5 2.44772 5 3C5 3.55228 5.48215 4 6.07692 4H13.9231C14.5178 4 15 3.55228 15 3C15 2.44772 14.5178 2 13.9231 2H6.07692ZM1 8C1 7.47173 1.44113 7.03914 2 7.00251C2.55887 7.03914 3 7.47173 3 8C3 8.52827 2.55887 8.96086 2 8.99749C1.44113 8.96086 1 8.52827 1 8ZM2 8.99749C2.02541 8.99915 2.05106 9 2.07692 9H1.92308C1.94894 9 1.97459 8.99915 2 8.99749ZM2 7.00251C1.97459 7.00085 1.94894 7 1.92308 7H2.07692C2.05106 7 2.02541 7.00085 2 7.00251ZM2 12.0025C1.44113 12.0391 1 12.4717 1 13C1 13.5283 1.44113 13.9609 2 13.9975C1.97459 13.9992 1.94894 14 1.92308 14H2.07692C2.05106 14 2.02541 13.9992 2 13.9975C2.55887 13.9609 3 13.5283 3 13C3 12.4717 2.55887 12.0391 2 12.0025ZM2 12.0025C2.02541 12.0008 2.05106 12 2.07692 12H1.92308C1.94894 12 1.97459 12.0008 2 12.0025ZM5 8C5 7.44772 5.48216 7 6.07692 7H13.9231C14.5178 7 15 7.44772 15 8C15 8.55228 14.5178 9 13.9231 9H6.07692C5.48216 9 5 8.55228 5 8ZM6.07692 12C5.48215 12 5 12.4477 5 13C5 13.5523 5.48215 14 6.07692 14H13.9231C14.5178 14 15 13.5523 15 13C15 12.4477 14.5178 12 13.9231 12H6.07692Z" fill="#2E2E2E"/>
</svg>
