<svg width="16" height="16" viewBox="0 0 16 16" fill="none" xmlns="http://www.w3.org/2000/svg">
<path fill-rule="evenodd" clip-rule="evenodd" d="M5.5 1.00002C5.10948 0.609492 4.47631 0.609492 4.08579 1.00002L1.29289 3.79291C0.902369 4.18343 0.902369 4.8166 1.29289 5.20712L4.08579 8.00002C4.47631 8.39054 5.10948 8.39054 5.5 8.00002C5.89052 7.60949 5.89052 6.97633 5.5 6.5858L4.41421 5.50002H12.5C13.0523 5.50002 13.5 5.0523 13.5 4.50002C13.5 3.94773 13.0523 3.50002 12.5 3.50002H4.41421L5.5 2.41423C5.89052 2.0237 5.89052 1.39054 5.5 1.00002ZM9.99994 15C10.3905 15.3905 11.0236 15.3905 11.4142 15L14.207 12.2071C14.5976 11.8166 14.5976 11.1834 14.207 10.7929L11.4142 7.99999C11.0236 7.60946 10.3905 7.60946 9.99994 7.99999C9.60942 8.39051 9.60942 9.02368 9.99994 9.4142L11.0857 10.5L2.99994 10.5C2.44766 10.5 1.99994 10.9477 1.99994 11.5C1.99994 12.0523 2.44766 12.5 2.99994 12.5L11.0857 12.5L9.99994 13.5858C9.60942 13.9763 9.60942 14.6095 9.99994 15Z" fill="#2E2E2E"/>
</svg>
