<svg width="16" height="16" viewBox="0 0 16 16" fill="none" xmlns="http://www.w3.org/2000/svg">
<path fill-rule="evenodd" clip-rule="evenodd" d="M15 2.07692C15 1.48216 14.5523 1 14 1C13.4477 1 13 1.48216 13 2.07692V12.9231C13 13.5178 13.4477 14 14 14C14.5523 14 15 13.5178 15 12.9231L15 2.07692ZM7 4.07692C7 3.48216 6.55228 3 6 3C5.44772 3 5 3.48216 5 4.07692L5 12.9231C5 13.5178 5.44771 14 6 14C6.55228 14 7 13.5178 7 12.9231L7 4.07692ZM3 8.07692C3 7.48216 2.55228 7 2 7C1.44772 7 1 7.48216 1 8.07692V12.9231C1 13.5178 1.44771 14 2 14C2.55228 14 3 13.5178 3 12.9231L3 8.07692ZM10 5C10.5523 5 11 5.48216 11 6.07692L11 12.9231C11 13.5178 10.5523 14 10 14C9.44771 14 9 13.5178 9 12.9231L9 6.07692C9 5.48216 9.44772 5 10 5Z" fill="#2E2E2E"/>
</svg>
