<svg width="30" height="29" viewBox="0 0 30 29" fill="none" xmlns="http://www.w3.org/2000/svg">
<g id="logo" opacity="0.4">
<path id="Vector (Stroke)" fill-rule="evenodd" clip-rule="evenodd" d="M13.7137 1.64472C14.1141 1.13515 14.886 1.13515 15.2863 1.64472L24.2011 12.9908C24.6423 13.5524 24.5448 14.3653 23.9832 14.8066C23.4216 15.2478 22.6087 15.1502 22.1674 14.5887L20.0042 11.8355C17.2016 8.26853 11.7984 8.26853 8.99579 11.8355L6.83261 14.5887C6.39137 15.1502 5.57842 15.2478 5.01684 14.8066C4.45525 14.3653 4.3577 13.5524 4.79894 12.9908L13.7137 1.64472Z" fill="#2E2E2E"/>
<path id="&#208;&#155;&#208;&#184;&#208;&#176;&#208;&#189;&#208;&#176;" d="M1.91297 19.4L1.90297 20.62C1.86297 23.59 1.57297 24.87 0.762969 24.87C0.622969 24.87 0.532969 24.86 0.492969 24.85V26C0.682969 26.07 0.872969 26.1 1.06297 26.1C2.47297 26.07 3.11297 24.88 3.19297 20.62H5.09297V26H6.44297V19.4H1.91297ZM11.8631 20.94L9.09313 23.75V21.05H7.75312V26.12H8.19312L10.9531 23.32V26H12.3031V20.94H11.8631ZM17.7204 23.06C17.7204 21.69 16.8904 20.94 15.6004 20.94C14.7304 20.94 14.0104 21.28 13.4404 21.96L14.1404 22.79C14.5804 22.32 14.9404 22.11 15.4504 22.11C16.0504 22.11 16.3704 22.43 16.3704 22.98V23.2H15.1304C13.9804 23.2 13.2604 23.75 13.2604 24.64C13.2604 25.51 13.9204 26.12 14.9704 26.12C15.6004 26.12 16.1204 25.89 16.4804 25.52V26H17.7204V23.06ZM16.3704 24.15C16.3704 24.72 15.9204 25.13 15.3304 25.13C14.9004 25.13 14.6204 24.92 14.6204 24.59C14.6204 24.26 14.8704 24.09 15.3104 24.09H16.3704V24.15ZM18.9496 26H20.2896V24.01H22.1196V26H23.4596V21.05H22.1196V22.86H20.2896V21.05H18.9496V26ZM28.8778 23.06C28.8778 21.69 28.0478 20.94 26.7578 20.94C25.8878 20.94 25.1678 21.28 24.5978 21.96L25.2978 22.79C25.7378 22.32 26.0978 22.11 26.6078 22.11C27.2078 22.11 27.5278 22.43 27.5278 22.98V23.2H26.2878C25.1378 23.2 24.4178 23.75 24.4178 24.64C24.4178 25.51 25.0778 26.12 26.1278 26.12C26.7578 26.12 27.2778 25.89 27.6378 25.52V26H28.8778V23.06ZM27.5278 24.15C27.5278 24.72 27.0778 25.13 26.4878 25.13C26.0578 25.13 25.7778 24.92 25.7778 24.59C25.7778 24.26 26.0278 24.09 26.4678 24.09H27.5278V24.15Z" fill="#2E2E2E"/>
</g>
</svg>
