<svg width="16" height="16" viewBox="0 0 16 16" fill="none" xmlns="http://www.w3.org/2000/svg">
<g id="work-icon">
<path id="Union" fill-rule="evenodd" clip-rule="evenodd" d="M8.62934 1.8928C8.95156 1.98701 9.24487 2.16082 9.48224 2.3982L11.0849 4.00087L11.7929 3.29289C12.1834 2.90237 12.8166 2.90237 13.2071 3.29289C13.5976 3.68342 13.5976 4.31658 13.2071 4.70711L12.4991 5.41508L13.9602 6.87612C14.1975 7.11349 14.3713 7.40681 14.4656 7.72902L15.2967 10.5715C15.8778 12.5586 13.4268 14.0109 11.9629 12.547L8.66505 9.24916L2.70711 15.2071C2.31658 15.5976 1.68342 15.5976 1.29289 15.2071C0.902369 14.8166 0.902369 14.1834 1.29289 13.7929L7.25084 7.83494L3.81136 4.39546C2.34741 2.93152 3.79978 0.480583 5.78689 1.06164L8.62934 1.8928ZM10.307 6.05137L8.06803 3.81241L5.22558 2.98125L13.3771 11.1328L12.5459 8.29033L10.307 6.05137Z" fill="#2E2E2E"/>
</g>
</svg>
